<svg id="O2" xmlns="http://www.w3.org/2000/svg" viewBox="0 0 340 340"><defs><style>.cls-1{fill:#0e1f7f;}.cls-2{fill:#fff;}</style></defs><title>Logo-o2-circle</title><circle class="cls-1" cx="170" cy="170" r="170"/><path class="cls-2" d="M114.06,155.19c0-23.68,13.06-46.77,39.18-46.77,26.42,0,39.79,22.48,39.79,46.77,0,24-11.85,46.77-39.79,46.77-27.33,0-39.18-23.38-39.18-46.77Zm-24.29,0c0,40.4,23.08,68.64,63.47,68.64,40.7,0,64.08-28.24,64.08-68.64,0-39.17-23.69-68.33-64.08-68.33-40.09,0-63.47,29.16-63.47,68.33ZM211.55,255.42H248.3v-8.81H225.52c8.81-8.51,20.65-19.44,20.65-31,0-10.93-6.68-16.4-17-16.4a39.73,39.73,0,0,0-16.71,4l.91,9.41c3.65-2.43,8.2-4.55,13.06-4.55,4.25,0,8.81,2.43,8.81,7.59,0,10-18.83,25.81-23.69,30.37v9.42Z" transform="translate(0.97 -1.14)"/></svg>